{
	"asset":{
		"version":"2.0",
		"generator":"Created using the official Cinema 4D glTF Exporter 1.000x287526"
	},
	"scenes":[{
		"nodes":[0]
	}],
	"nodes":[{
		"name":"Black",
		"scale":[1.0,
		1.0,
		1.0],
		"translation":[0.0,
		-5.329070399086743e-17,
		0.0],
		"rotation":[0.0,
		0.0,
		0.0,
		-1.0],
		"mesh":0
	}],
	"meshes":[{
		"primitives":[{
			"attributes":{
				"POSITION":1,
				"NORMAL":2,
				"TEXCOORD_0":3
			},
			"indices":0,
			"material":0
		}]
	}],
	"accessors":[{
		"bufferView":0,
		"type":"SCALAR",
		"componentType":5123,
		"count":5490,
		"byteOffset":0,
		"min":[0],
		"max":[3346]
	},
	{
		"bufferView":1,
		"type":"VEC3",
		"componentType":5126,
		"count":3347,
		"byteOffset":0,
		"min":[-0.4749999940395355,
		-0.05152423307299614,
		-0.4749999940395355],
		"max":[0.4749999940395355,
		0.011300000362098217,
		0.4749999940395355]
	},
	{
		"bufferView":1,
		"type":"VEC3",
		"componentType":5126,
		"count":3347,
		"byteOffset":12,
		"min":[-1.0,
		-1.0,
		-1.0],
		"max":[1.0,
		1.0,
		1.0]
	},
	{
		"bufferView":1,
		"type":"VEC2",
		"componentType":5126,
		"count":3347,
		"byteOffset":24,
		"min":[0.0044579585082829,
		0.0044579580426216129],
		"max":[0.9823828935623169,
		0.995542049407959]
	}],
	"bufferViews":[{
		"buffer":0,
		"byteOffset":0,
		"byteLength":10980,
		"target":34963
	},
	{
		"buffer":0,
		"byteOffset":10980,
		"byteLength":107104,
		"target":34962,
		"byteStride":32
	}],
	"buffers":[{
		"uri":"data:application/octet-stream;base64,",
		"byteLength":118084
	}],
	"images":[{
		"uri":"data:image/jpeg;base64,"
	}],
	"samplers":[{
		"magFilter":9729,
		"minFilter":9729,
		"wrapS":10497,
		"wrapT":10497
	}],
	"textures":[{
		"sampler":0,
		"source":0
	}],
	"materials":[{
		"pbrMetallicRoughness":{
			"baseColorTexture":{
				"index":0
			},
			"baseColorFactor":[1.0,
			1.0,
			1.0,
			1.0],
			"metallicFactor":1.0,
			"roughnessFactor":1.0
		},
		"emissiveFactor":[0.0,
		0.0,
		0.0],
		"alphaMode":"OPAQUE",
		"doubleSided":true,
		"name":"Mat"
	}]
}